<svg width="347" height="258" viewBox="0 0 347 258" fill="none" xmlns="http://www.w3.org/2000/svg">
<path d="M246.316 87.2072C270.093 62.9333 296.633 43.6602 324 27C322.869 34.7261 315.581 35.3441 311.274 39.165C272.921 62.5118 239.659 96.9842 207.224 131.738C194.019 145.532 181.989 161.04 170.481 177.111C155.71 198.997 141.026 222.456 135 251C137.175 238.329 140.852 226.136 146.443 215.348C171.612 163.316 209.182 124.264 246.316 87.2072Z" fill="white" fill-opacity="0.04"/>
<path d="M0 133.257C17.9292 129.87 35.0165 120.045 53.3538 120.112C114.129 118.1 173.91 143.484 227.264 180.438C256.39 200.189 281.945 227.585 305 258C249.81 193.985 181.587 149.52 109.36 130.976C80.082 123.934 49.5793 120.782 20.3009 129.635C13.6444 131.781 6.80952 132.72 0 133.257Z" fill="white" fill-opacity="0.04"/>
<path d="M196 16C201.38 21.5621 206.863 20.12 212.314 21.2531C239.002 22.4376 265.69 38.9694 291.562 72.1877C318.219 107.724 344.519 161.851 366 251C352.254 207.224 338.141 165.663 322.998 135.174C288.24 63.2265 250.598 35.7764 213.292 26.9182C207.504 24.4977 201.584 25.0127 196 16Z" fill="white" fill-opacity="0.04"/>
<path d="M256 0C213.314 10.8502 170.098 22.3432 129.173 73.2183C100.885 108.26 73.2126 151.42 47.088 205.751C40.9385 219.896 33.9196 230.264 29 251C48.7631 202.857 70.8165 169.423 92.4668 135.346C128.431 79.6481 166.324 41.15 205.087 27.8887C221.351 22.5842 237.658 18.7265 253.879 12.5379L256 0Z" fill="white" fill-opacity="0.04"/>
<path d="M269 123C274.847 139.881 280.412 161.717 284 193C278.209 175.035 273.181 151.031 269 123Z" fill="white" fill-opacity="0.04"/>
</svg>
