<svg width="170" height="237" viewBox="0 0 170 237" fill="none" xmlns="http://www.w3.org/2000/svg">
<path fill-rule="evenodd" clip-rule="evenodd" d="M90.1378 139.324C94.0737 136.417 91.3564 153.017 89.2943 158.362C86.7644 165.209 84.7028 170.179 81.1416 177.119C76.8306 185.372 81.048 193.437 81.4226 200.283C81.7036 204.409 78.4239 220.633 79.5483 228.043C80.6728 230.012 82.0787 227.761 82.6407 222.697L83.7657 215.195C85.0774 214.35 85.5462 215.195 85.1712 217.726L84.7964 222.697C85.6399 225.323 87.0454 225.604 89.5758 224.104C90.6066 220.915 94.1678 215.663 92.1057 212.756L89.0133 208.442C87.7016 200.564 87.7952 193.156 89.9504 186.403C93.0428 181.058 96.885 173.274 99.9777 168.491C102.039 155.174 100.633 148.516 99.3216 141.857C97.822 134.73 111.129 131.166 109.818 132.667C104.101 138.575 102.414 145.89 103.164 155.456C103.633 160.707 101.946 166.428 102.602 171.68C95.7607 178.057 84.2337 193.719 97.3539 199.346C99.4155 200.19 99.8843 200.377 99.6965 197.095C98.0101 189.78 99.3218 185.56 104.195 176.651C107.381 171.117 105.226 163.709 110.755 159.864C117.127 153.956 122.843 142.702 124.437 139.607C125.187 136.418 129.591 135.949 128.373 139.138C122.563 153.58 112.348 163.333 110.099 167.929C108.787 170.462 107.475 172.993 107.381 175.994C107.287 179.84 101.571 181.621 101.759 185.467C101.946 190.531 104.851 195.501 100.54 195.971C101.664 197.471 103.914 198.128 107.662 195.783C109.63 194.189 109.068 191.188 109.818 188.468C111.317 182.841 110.661 178.809 112.629 172.9C114.034 168.681 116.284 164.46 120.407 162.116C122.281 161.084 123.875 163.241 122.094 165.492C118.72 169.431 115.253 172.901 113.66 177.965C112.535 181.716 112.91 185.467 112.535 189.219C112.254 192.126 108.224 197.753 106.256 199.254C108.318 198.128 113.472 198.316 116.19 189.406L117.596 180.122C117.971 177.402 131.09 166.898 133.246 156.582C135.121 147.767 135.308 142.42 134.464 137.263C137.744 133.324 140.65 127.228 142.805 124.884C144.023 119.351 142.992 112.317 144.492 109.222C148.334 101.344 149.927 95.811 148.615 91.4035C143.555 91.1222 150.77 88.7779 147.959 81.5562C144.117 78.649 144.679 77.2425 149.459 77.3362C151.333 77.3362 152.645 76.2104 152.551 74.3348L147.772 71.803L146.741 68.5203L148.896 65.8006L152.176 59.7987L145.71 59.2363L146.741 54.8284C147.772 50.9833 151.52 48.3573 149.646 49.1076C137.932 53.7031 140.275 49.858 148.24 41.98L148.334 38.7915L139.337 43.0115C144.117 31.6645 131.653 20.8791 118.252 13.7521C114.504 15.909 115.722 22.4738 120.97 24.7242L129.216 31.8518C131.559 34.0088 130.997 38.8853 128.935 38.9791C127.342 35.2278 125.187 32.8835 122.938 29.7892C119.658 27.4443 119.377 28.8513 118.065 27.8193C116.472 21.9112 113.66 13.8461 108.038 11.4074C96.8855 6.53075 89.2011 7.65603 80.4859 9.90711L72.3332 12.064C69.7092 12.7206 66.5226 8.59386 62.3992 7.18738L62.868 14.2209C60.8059 14.8775 58.276 16.3777 58.3697 18.2533L48.717 18.1596L54.2461 23.0363C46.9365 18.3476 38.3152 35.7905 33.7228 46.2943C28.7562 46.2006 25.5697 45.7314 20.322 46.8572C18.1668 48.6386 17.7917 50.4206 16.1047 51.6401C13.106 53.9844 11.6069 51.2647 8.51401 50.3268C6.26511 49.6703 6.82759 50.1393 8.88916 52.6716C9.73262 54.6411 17.6976 56.7042 21.5398 53.2341C23.6015 51.3584 27.7251 54.1719 34.0972 52.4837C36.9086 51.6401 38.4082 48.17 41.1259 45.8252C41.9694 45.8252 43.0938 46.3881 42.063 49.1078C39.9073 54.6411 35.2221 56.235 31.0983 58.2985L18.3535 59.2364C12.4497 59.705 10.2003 59.2364 7.57612 60.7366C2.98459 63.4564 3.64031 64.4879 5.98337 63.1751C11.0436 60.4554 14.7918 59.1421 19.4774 62.331C22.7572 65.8007 27.9116 67.3014 34.0962 68.8958C37.751 69.552 46.3722 66.2698 48.0598 59.8926C48.9033 56.8916 46.3729 55.5789 48.3408 53.3278C50.0277 51.5459 51.902 52.39 52.7454 54.5473C51.621 60.7367 49.6531 65.2386 46.3729 67.2074C41.3125 71.0524 38.7822 71.9902 35.409 73.3031C30.3482 75.1787 23.133 73.3031 18.6347 71.8028C18.26 71.7091 17.9786 71.4274 17.6976 71.1462C16.1043 69.9271 24.8199 68.0515 24.5385 66.3633C21.5397 64.4877 16.6668 66.7383 11.9811 67.6761L8.60775 69.0831C14.0427 71.1462 15.4487 71.7091 14.2301 75.2725C8.2326 80.8056 8.51358 79.5866 16.3858 76.3045C18.6347 77.4298 19.1972 79.4929 19.3845 81.7436C19.7591 83.7129 23.133 84.9324 26.6001 85.3074L30.2549 82.3064L35.0343 80.9932C37.752 82.6814 25.1943 91.7786 22.3828 88.9649C19.946 86.4327 17.4162 84.3696 14.8858 82.963C11.5124 82.1189 8.88831 82.5876 6.54525 83.338L1.0166 84.8386C7.95119 84.0883 14.3241 84.6508 18.6343 90.0902C17.7908 94.9669 17.8845 95.7172 22.6638 98.0615C26.7875 99.9372 32.8784 97.4054 34.472 93.2787L36.1589 89.0587C37.1897 86.5264 44.499 88.3083 49.185 87.8396C54.8078 86.9018 58.7436 84.4633 60.243 82.2126C62.0236 79.6804 70.3644 72.0837 56.2134 78.5551C53.0269 81.2748 53.1207 81.8373 49.3721 79.8678C44.7806 79.6804 40.9384 79.0237 38.8761 77.2423C34.7529 77.0544 34.4719 76.0228 38.5951 73.6785C42.7183 71.4274 46.5605 69.646 47.0293 72.5531L47.6854 75.3667C48.1537 77.2423 49.3718 77.3361 51.4339 75.6479C52.2769 77.0544 53.9639 77.5235 56.4942 77.2423C56.9626 75.1787 60.6174 73.0219 63.5225 74.5226C65.4904 75.5542 65.1157 78.2739 67.5525 79.3992L74.0183 80.1495C74.7681 81.1811 74.6743 83.0567 74.7681 85.6823C77.8604 86.9018 79.4537 85.3074 82.9212 83.0567C85.6389 82.7751 86.4819 85.4948 87.1381 89.809C89.106 89.0587 91.6364 87.9334 92.3862 85.4011C96.1346 85.4948 98.4773 87.4642 98.009 91.2155C93.7916 97.1237 93.136 95.9047 101.382 92.5287C104.662 91.2155 107.568 92.0596 111.222 92.3409C111.316 93.3724 111.972 95.6235 113.002 98.9056C113.565 96.9362 114.315 95.1543 117.876 94.1228C120.968 93.8416 124.154 92.1534 124.998 94.3102C126.872 99.0936 123.78 105.283 119.188 109.691C112.909 119.538 108.973 120.757 104.006 125.633C99.5077 129.948 92.4793 133.418 94.5407 127.603C95.8526 123.946 96.8833 119.631 98.5703 115.786C102.225 106.971 112.064 103.97 122.467 104.908L124.248 102C114.689 102.75 102.506 102.469 98.0089 111.473C94.8224 118.131 91.9173 124.695 90.043 132.292C88.9186 136.981 86.2945 135.669 83.4831 133.887C80.8595 130.135 79.3599 125.728 78.7974 122.351C77.0173 121.413 76.1738 122.164 77.0173 124.696L78.8916 130.511C73.081 128.541 64.8348 124.321 59.8678 127.697C56.6817 129.854 53.402 130.886 50.2151 130.886C49.4658 127.04 52.5582 124.602 52.2767 121.32C51.2459 111.378 49.6531 102.094 45.4358 96.7487C43.5616 94.4043 48.0599 91.4971 51.7147 90.465C46.6544 88.5894 42.7181 88.4957 39.1573 92.0595C34.0029 102.376 34.5653 113.817 41.9687 131.636C44.5923 137.919 44.8737 146.36 50.3087 152.643C55.1821 158.364 65.865 161.928 73.4562 158.739C83.4835 154.519 85.8263 142.514 90.1364 139.326L90.1378 139.324ZM65.2103 153.673C61.368 152.173 59.0255 149.828 57.7132 146.921C54.3398 141.107 55.2769 135.573 60.6182 133.041C65.4913 130.791 70.5523 133.323 74.2072 136.793C77.0186 138.481 80.2983 137.824 84.4218 138.949C86.4834 139.512 84.7032 142.326 82.6411 144.108C80.4859 147.672 76.269 155.643 72.4265 155.549L73.27 153.11C74.7692 151.891 74.3944 150.672 74.9565 145.796C75.1442 143.92 77.4869 144.576 78.6113 145.139C79.3611 145.514 79.5484 143.92 80.3919 143.451C76.2687 140.637 69.6153 141.2 65.2103 139.043C63.9921 139.606 63.5233 139.231 68.209 142.044C65.3976 143.826 67.2718 148.609 67.4592 151.141C67.4592 151.141 69.0524 155.08 65.2103 153.673V153.673ZM142.429 90.8396C141.773 88.4948 140.086 89.1514 140.18 87.9324C139.524 86.9008 139.993 86.4316 141.68 86.4316C143.179 87.2757 143.647 88.8702 144.585 90.0892C145.24 96.7478 144.772 105.563 140.555 111.472C136.9 116.63 138.68 119.724 138.212 126.665C136.057 124.976 136.057 128.352 135.869 130.697C135.213 131.729 134.557 131.729 133.901 130.885L134.089 115.504C133.152 111.096 134.932 110.158 137.275 108.939C139.993 107.439 137.369 101.718 138.212 97.2167C138.774 94.309 142.991 93.1837 142.429 90.8393V90.8396ZM107.662 151.516C109.443 140.919 112.91 133.416 120.782 126.945C123.593 126.664 124.624 127.32 126.498 127.508C118.626 129.852 112.347 134.541 111.972 144.388C111.785 147.577 111.317 148.421 113.472 146.639C115.44 139.418 119.469 132.572 126.029 128.727L126.404 130.696C118.532 139.7 111.972 149.265 108.13 159.113C105.6 160.8 107.005 157.987 107.662 151.516H107.662ZM83.5781 189.029C89.4823 176.931 86.3894 170.742 96.0422 165.209C98.1976 160.613 97.073 159.769 94.3553 159.675C90.4195 164.083 88.2638 171.492 85.8275 175.806C87.1393 170.272 91.3566 160.988 95.1987 155.736C87.6081 156.768 77.6743 201.127 83.5779 189.029L83.5781 189.029ZM50.9661 74.8043L59.213 69.4585C59.213 65.426 57.9949 61.3935 59.213 57.3608L53.1214 50.6081C49.1855 52.39 49.748 46.6693 50.029 42.8242L49.467 34.29C49.2792 31.6645 51.7159 29.9763 54.8083 28.7568L57.7134 24.3493V21.4421L60.1501 19.0973L62.118 22.9424L65.9602 18.0657C68.1155 16.4718 69.1463 14.5961 69.8961 12.7204L73.4572 12.4388C72.9884 13.3766 73.4572 14.2207 72.8011 15.1585C70.7395 16.3775 68.5843 17.1279 66.991 18.9098C65.6792 20.4105 64.742 22.4737 64.5543 24.3493C63.9922 28.663 66.991 24.6305 68.3965 20.973L73.2699 22.4737L66.4285 29.5071C63.9922 33.4459 64.6484 37.6664 67.4593 41.6048C71.4893 43.0113 75.7062 44.7932 79.7353 48.9199L85.8269 49.0136L83.859 58.2985L92.5742 67.4884L98.9468 67.0198L94.5421 71.8963V75.2723L105.975 78.6486L108.692 76.2101C110.848 74.3345 112.16 73.6783 112.628 77.6171C113.097 81.6496 115.44 82.3062 120.875 79.5865L124.624 75.1786L130.621 74.0533C134.37 71.8963 135.681 68.1451 135.494 65.9882L141.96 62.9872L142.054 57.2661L140.18 50.6076L144.397 58.4856L145.053 66.2694L143.178 69.8332L145.99 70.6773L149.364 73.5845C147.021 71.9901 144.209 71.521 142.522 74.6162L142.991 82.5875C136.712 87.2766 136.806 88.5893 134.463 89.9963L130.621 86.9954L129.309 91.0279C126.029 92.9973 122.374 92.8098 118.345 91.497L116.002 93.8414C114.596 94.9667 113.284 97.5927 111.878 92.3407L110.567 88.5893C109.161 87.3703 107.474 86.4325 104.007 87.7458L103.163 90.6529C100.445 91.6845 98.1029 92.8098 95.9471 94.5918C97.3531 92.9035 99.4147 92.9035 98.4775 89.0585C97.8214 86.1513 97.5404 84.9323 93.6982 84.9323C90.9805 84.9323 89.2935 86.7137 87.7008 88.5893C87.6071 85.8701 89.7624 82.3999 87.5134 80.3368C86.5763 79.5865 84.1395 78.7424 83.2961 80.1494L81.5155 83.244C80.2037 85.4947 77.1113 84.3694 75.3307 85.1197C75.3307 83.7128 75.1434 82.1187 75.7991 80.7117C77.486 77.8983 76.1742 76.3043 71.8632 76.0226L67.5527 75.6477L65.4907 74.2407L68.7708 71.3335L64.4599 70.9585C58.8371 71.521 56.4945 73.4908 55.5574 75.3665L50.9653 74.8036L50.9661 74.8043ZM137.745 77.8052C139.244 76.7737 140.275 76.6799 140.744 77.4303L140.182 80.9C137.933 82.3069 137.089 83.8072 136.152 85.5891L134.278 86.5269L132.591 85.9645C132.123 84.745 132.872 83.0572 134.465 82.2132L137.745 77.8052ZM127.905 77.1486L132.591 74.0539C134.371 73.5852 136.058 73.7728 137.089 71.5217L135.777 69.6465C135.777 67.6766 136.526 66.5513 137.839 67.5828C138.87 67.8646 139.619 68.9898 140.275 70.3026C139.994 71.7096 139.525 73.3036 138.588 74.3351L131.466 81.1816C130.342 82.3069 129.498 83.6197 129.967 85.3079C128.936 87.0898 127.155 87.6522 126.124 87.6522L124.437 86.9961C121.345 81.5565 123.688 80.6187 127.905 77.1488V77.1486ZM63.337 51.7343C65.305 48.8271 67.3666 46.4823 69.8033 46.7635C73.8328 47.3264 76.3633 48.2642 78.2375 51.0777L80.2991 50.7965C82.8295 50.5149 80.2991 53.4221 78.7995 52.9534C78.7058 54.829 78.7995 56.611 79.2683 58.2991C77.3941 59.9868 75.9881 58.9553 74.8637 58.3929C73.7391 57.83 72.8957 57.2671 71.9585 56.9859C64.9303 54.9228 63.9932 55.3919 63.3366 51.7343H63.337ZM117.503 87.2775C117.222 86.3397 118.159 85.2144 115.535 85.4956L116.191 83.62C119.284 82.5884 120.314 84.089 120.221 86.3397C120.127 88.6845 118.909 88.6845 117.503 87.2775ZM96.7924 78.0868C95.3869 76.774 93.0438 78.3685 94.3561 79.7749C97.8232 82.4947 101.103 84.6516 106.726 83.62L107.851 85.027H110.381L110.1 83.62L112.068 83.0576L111.693 81.5569L109.819 81.6506L109.538 79.7749H107.57L107.288 81.6506C104.758 83.9954 98.1984 79.4 96.7922 78.0868H96.7924ZM71.8649 66.8331L71.0214 64.3945C67.3666 61.956 65.8674 62.988 67.4603 66.4576C71.7712 70.0215 76.2695 73.3037 80.5796 76.8673C84.0471 76.6799 83.2037 76.9611 82.5475 74.2413C79.8298 71.8032 76.0818 69.5521 71.8642 66.8329L71.8649 66.8331ZM63.9932 57.2666L70.2716 60.7367L74.77 61.7683L79.8303 62.6124C84.61 63.9251 87.2337 64.0193 90.5136 68.333C93.7933 72.6472 85.8279 68.8022 84.422 68.1456L79.4554 65.4258C76.644 63.8314 74.4887 64.1131 72.1456 63.1752L64.7427 61.6746L62.4933 59.3302C62.1187 56.9854 62.7748 56.7979 63.9929 57.2666H63.9932ZM87.5153 77.2428C88.9208 78.0863 90.0453 76.6799 89.577 74.0539C87.7964 72.1782 85.266 70.49 82.3609 68.896C79.7369 68.6143 80.393 70.0213 84.5162 73.116L87.5153 77.2428ZM57.6208 36.2597L55.4655 33.0714L56.59 30.3515L58.7453 28.0072L59.0268 26.1316L62.2128 27.1632L62.7752 29.0388V32.7902C61.3693 34.1966 60.3385 35.7911 60.3385 35.7911V37.1038L59.776 38.9795L62.2128 38.2291L62.4938 40.8552L61.9318 46.2947H60.3385L59.4951 44.8877L58.1833 44.3253C58.1833 42.4496 58.4643 41.9805 58.4643 41.9805L59.2141 40.2927L58.7453 38.2291C58.7453 38.2291 57.6208 36.8226 57.6208 36.2597ZM55.7466 46.0137L57.3398 47.6077L59.2141 49.4833C57.9018 50.5149 57.3398 50.5149 57.3398 50.5149L55.7466 50.0462L54.1533 48.1706L55.7466 46.0137ZM59.4014 88.4964C63.3372 87.5586 69.5228 86.5271 73.7396 88.8719C80.1123 92.6232 84.423 97.5935 93.2322 100.688C92.1073 101.345 90.3272 101.907 88.0778 101.532C83.4858 100.688 79.0812 95.4365 72.8962 92.7171C68.5857 90.7477 65.0245 89.5282 59.4022 88.4966L59.4014 88.4964ZM104.009 110.161C104.852 110.536 105.696 111.474 107.289 111.849C108.507 112.13 109.913 112.036 111.225 111.755L115.442 110.536C113.099 113.35 109.632 114.756 107.57 114.475C105.133 114.193 103.072 113.443 102.697 112.412C102.135 110.911 102.509 109.692 104.009 110.161ZM64.6498 93.468C67.5549 95.6249 70.3663 97.8755 74.1143 99.7511C76.9257 100.595 79.9249 100.595 82.4547 100.22C84.329 99.9386 84.8915 101.533 81.9864 102.283C77.7691 103.503 74.2084 103.034 70.7411 100.783C67.2736 98.6259 64.8373 95.8124 64.65 93.468H64.6498ZM53.7792 30.0709V36.3541L55.1851 38.7926L56.1222 43.1068L55.3724 44.3259C55.3724 44.3259 56.1222 44.7008 54.9974 45.3574C53.7792 45.9203 55.1851 45.9203 53.5918 45.9203C51.9986 45.9203 52.1859 48.0772 52.1859 45.3574V42.3564C52.1859 40.9495 53.4045 43.1068 52.1859 40.762C50.9678 38.4177 50.9678 38.9801 51.6239 36.6358C52.1859 34.1972 51.4366 33.4469 51.4366 33.4469L53.7792 30.0709ZM123.033 40.4806L121.627 38.7924L122.377 36.3539L124.438 35.6041L121.627 34.9474L119.94 34.2908L118.534 32.134L116.473 29.0392C115.255 27.2573 115.067 31.8527 115.067 31.8527L116.847 33.5409C117.879 35.3223 115.442 36.6356 117.504 37.0105C119.565 37.386 119.565 38.0421 119.565 38.0421L119.191 40.1053L118.91 42.5438C119.565 46.0139 119.191 47.0454 119.191 47.0454L118.534 49.1086L120.596 49.8589L122.002 48.077L122.658 46.0139L124.72 48.8274C125.094 50.8905 126.125 51.5467 126.125 51.5467C126.125 51.5467 126.875 51.5467 126.875 53.6102V55.6734L128.936 57.0799L129.967 51.5467L127.906 49.4835L126.5 47.0454C124.438 46.0139 123.407 43.9503 123.407 43.9503V42.2625L123.033 40.4806ZM118.347 62.2381C120.128 62.2381 120.502 62.8943 120.502 62.8943L121.533 66.177L124.063 67.9589C125.469 70.1157 125.469 70.1157 125.469 70.1157H122.283V67.5834L120.128 68.615L118.628 66.4582L118.347 62.2381ZM99.6978 58.2052L103.259 58.9555L105.789 58.5806L104.665 55.0168L104.383 52.4845L101.854 51.8283C100.073 52.4845 101.478 51.8283 99.3232 52.4845C97.1679 53.2348 95.3873 51.8283 95.3873 51.8283L95.0122 50.0464L93.2321 50.3276L91.0763 51.4529C91.0763 53.9852 85.735 56.4237 89.2957 56.142C92.8569 55.7671 94.3565 56.142 94.3565 56.142L95.762 54.2664L97.5426 54.6418L101.478 55.7671L99.6978 58.2052ZM97.5426 60.3625L100.073 60.7374L101.854 61.8628L105.789 62.8943L106.446 66.8336H104.009L101.854 66.4582L100.073 66.177L98.2924 65.4266L101.478 64.3013L104.383 63.6447L100.073 62.2381L97.5426 60.3625ZM99.6978 20.5984L101.854 22.7553L101.104 26.6941L102.884 28.1011L104.383 30.6329L106.82 30.2579L106.446 28.476L104.665 27.8194L104.009 24.1623V22.005C104.009 22.005 104.009 19.848 102.228 19.848C100.448 19.848 99.6978 20.5984 99.6978 20.5984ZM95.0122 14.1274L97.5426 15.2527C100.073 16.2842 97.5426 14.1274 100.073 16.2842C102.509 18.4416 103.259 18.4416 103.259 18.4416L106.446 17.0346L104.009 15.2527C101.854 14.8777 99.3232 13.4708 99.3232 13.4708C99.3232 13.4708 94.6375 13.7525 95.0122 14.1274ZM92.8569 20.9734L90.7017 21.7238L88.265 22.3804C85.735 23.8806 84.9852 23.8806 84.9852 23.8806L81.7992 24.5372L84.9852 22.3804L85.3599 20.5984L92.8569 20.9734ZM95.0122 20.5984L91.4515 16.6597L88.9211 17.41L86.3907 14.8777H84.6106L88.265 14.1274L92.8569 15.6281L92.2013 18.0661L95.0122 20.5984ZM95.0122 37.8543C92.4823 38.8858 91.8261 39.2613 91.8261 39.2613L90.0455 40.0112C87.5156 42.0743 86.7659 42.8247 86.7659 42.8247H84.2354L84.9852 41.0428C87.1405 40.0112 87.8903 36.729 87.8903 36.729L91.8261 35.9786C91.8261 35.9786 90.0455 34.9471 93.6067 35.9786C97.1679 37.1039 95.0122 37.8543 95.0122 37.8543ZM75.3332 38.8858L77.1137 38.5109L80.6745 36.729L83.2049 38.1355L87.1408 35.6974L82.1741 39.6362C79.6437 40.6677 80.2998 40.6677 78.5193 40.6677C76.7387 40.6677 75.3332 38.8858 75.3332 38.8858Z" fill="#7A0424"/>
<g clip-path="url(#clip0_123_15)">
<path d="M123.156 102.99C122.51 101.183 121.14 99.5608 119.691 98.3298C118.241 99.5611 116.872 101.183 116.226 102.99C115.826 104.107 115.787 105.32 116.349 106.392C116.996 107.624 118.301 108.415 119.69 108.415C121.08 108.415 122.385 107.624 123.032 106.392C123.594 105.32 123.555 104.107 123.155 102.99H123.156ZM121.919 105.804C121.488 106.624 120.614 107.154 119.691 107.154C119.149 107.154 118.624 106.972 118.196 106.655C118.326 106.672 118.458 106.682 118.59 106.682C119.744 106.682 120.837 106.02 121.375 104.995C121.816 104.155 121.778 103.283 121.61 102.589C121.753 102.866 121.874 103.142 121.972 103.415C122.194 104.036 122.365 104.955 121.919 105.804Z" fill="#7A0424"/>
</g>
<g clip-path="url(#clip1_123_15)">
<path d="M108.063 123.16C107.417 121.353 106.047 119.731 104.598 118.5C103.148 119.731 101.779 121.353 101.133 123.16C100.733 124.277 100.694 125.49 101.256 126.562C101.904 127.794 103.208 128.585 104.598 128.585C105.987 128.585 107.292 127.794 107.939 126.562C108.502 125.49 108.462 124.277 108.062 123.16H108.063ZM106.826 125.975C106.396 126.795 105.521 127.324 104.598 127.324C104.056 127.324 103.532 127.142 103.103 126.826C103.234 126.843 103.365 126.852 103.498 126.852C104.652 126.852 105.745 126.19 106.282 125.165C106.723 124.325 106.685 123.453 106.517 122.759C106.66 123.036 106.781 123.312 106.879 123.585C107.101 124.207 107.272 125.125 106.826 125.975Z" fill="#7A0424"/>
</g>
<g clip-path="url(#clip2_123_15)">
<path d="M104.29 166.022C103.644 164.215 102.274 162.593 100.825 161.362C99.3752 162.593 98.0058 164.215 97.3597 166.022C96.96 167.139 96.9207 168.352 97.4832 169.423C98.1303 170.656 99.4349 171.447 100.824 171.447C102.214 171.447 103.519 170.656 104.166 169.423C104.728 168.352 104.689 167.139 104.289 166.022H104.29ZM103.053 168.836C102.622 169.656 101.748 170.186 100.825 170.186C100.283 170.186 99.7585 170.004 99.3302 169.687C99.4604 169.704 99.5918 169.713 99.7245 169.713C100.878 169.713 101.971 169.052 102.509 168.027C102.95 167.187 102.912 166.315 102.744 165.62C102.887 165.898 103.008 166.174 103.106 166.447C103.328 167.068 103.499 167.987 103.053 168.836Z" fill="#7A0424"/>
</g>
<g clip-path="url(#clip3_123_15)">
<path d="M126.929 186.192C126.283 184.385 124.913 182.763 123.464 181.532C122.014 182.763 120.645 184.385 119.999 186.192C119.599 187.309 119.56 188.522 120.122 189.594C120.769 190.826 122.074 191.617 123.464 191.617C124.853 191.617 126.158 190.826 126.805 189.594C127.368 188.522 127.328 187.309 126.928 186.192H126.929ZM125.692 189.007C125.261 189.827 124.387 190.356 123.464 190.356C122.922 190.356 122.398 190.174 121.969 189.857C122.1 189.875 122.231 189.884 122.364 189.884C123.518 189.884 124.611 189.222 125.148 188.197C125.589 187.357 125.551 186.485 125.383 185.791C125.526 186.068 125.647 186.344 125.745 186.617C125.967 187.239 126.138 188.157 125.692 189.007Z" fill="#7A0424"/>
</g>
<g clip-path="url(#clip4_123_15)">
<path d="M113.094 201.95C112.448 200.143 111.078 198.521 109.629 197.29C108.179 198.521 106.81 200.143 106.164 201.95C105.764 203.067 105.725 204.28 106.287 205.352C106.934 206.584 108.239 207.375 109.628 207.375C111.018 207.375 112.323 206.584 112.97 205.352C113.532 204.28 113.493 203.067 113.093 201.95H113.094ZM111.857 204.765C111.426 205.585 110.552 206.114 109.629 206.114C109.087 206.114 108.563 205.932 108.134 205.615C108.264 205.633 108.396 205.642 108.529 205.642C109.683 205.642 110.776 204.98 111.313 203.955C111.754 203.115 111.716 202.243 111.548 201.549C111.691 201.826 111.812 202.102 111.91 202.375C112.132 202.997 112.303 203.915 111.857 204.765Z" fill="#7A0424"/>
</g>
<g clip-path="url(#clip5_123_15)">
<path d="M99.2588 217.708C98.6126 215.901 97.2432 214.279 95.7937 213.048C94.3442 214.279 92.9748 215.901 92.3287 217.708C91.929 218.825 91.8897 220.038 92.4522 221.11C93.0993 222.342 94.4039 223.133 95.7934 223.133C97.1829 223.133 98.4878 222.342 99.1346 221.11C99.6974 220.038 99.6578 218.825 99.2581 217.708H99.2588ZM98.0218 220.523C97.5913 221.343 96.7169 221.872 95.7937 221.872C95.2519 221.872 94.7275 221.69 94.2992 221.373C94.4294 221.39 94.5608 221.4 94.6935 221.4C95.8475 221.4 96.9404 220.738 97.4781 219.713C97.919 218.873 97.8809 218.001 97.7127 217.307C97.8558 217.584 97.9771 217.86 98.0746 218.133C98.2966 218.754 98.468 219.673 98.0218 220.523Z" fill="#7A0424"/>
</g>
<g clip-path="url(#clip6_123_15)">
<path d="M108.063 97.9472C107.417 96.1407 106.047 94.5182 104.598 93.2872C103.148 94.5186 101.779 96.1407 101.133 97.9472C100.733 99.0644 100.694 100.277 101.256 101.349C101.904 102.582 103.208 103.372 104.598 103.372C105.987 103.372 107.292 102.582 107.939 101.349C108.502 100.277 108.462 99.0644 108.062 97.9472H108.063ZM106.826 100.762C106.396 101.582 105.521 102.112 104.598 102.112C104.056 102.112 103.532 101.929 103.103 101.613C103.234 101.63 103.365 101.639 103.498 101.639C104.652 101.639 105.745 100.977 106.282 99.9525C106.723 99.1126 106.685 98.2403 106.517 97.546C106.66 97.8233 106.781 98.0994 106.879 98.3726C107.101 98.9938 107.272 99.9125 106.826 100.762Z" fill="#7A0424"/>
</g>
<defs>
<clipPath id="clip0_123_15">
<rect width="10.0618" height="10.0851" fill="white" transform="translate(114.66 98.3298)"/>
</clipPath>
<clipPath id="clip1_123_15">
<rect width="10.0619" height="10.0851" fill="white" transform="translate(99.567 118.5)"/>
</clipPath>
<clipPath id="clip2_123_15">
<rect width="10.0618" height="10.0851" fill="white" transform="translate(95.7938 161.362)"/>
</clipPath>
<clipPath id="clip3_123_15">
<rect width="10.0619" height="10.0851" fill="white" transform="translate(118.433 181.532)"/>
</clipPath>
<clipPath id="clip4_123_15">
<rect width="10.0619" height="10.0851" fill="white" transform="translate(104.598 197.29)"/>
</clipPath>
<clipPath id="clip5_123_15">
<rect width="10.0619" height="10.0851" fill="white" transform="translate(90.7628 213.048)"/>
</clipPath>
<clipPath id="clip6_123_15">
<rect width="10.0619" height="10.0851" fill="white" transform="translate(99.567 93.2872)"/>
</clipPath>
</defs>
</svg>
